<svg xmlns="http://www.w3.org/2000/svg" xmlns:xlink="http://www.w3.org/1999/xlink" version="1.1" x="0px" y="0px" viewBox="0 0 98 122.5" style="enable-background:new 0 0 98 98;" xml:space="preserve"><style type="text/css">
	.st0{fill-rule:evenodd;clip-rule:evenodd;}
</style><path class="st0" d="M36.478,10.155c4.056,0,7.345,3.288,7.345,7.345c0,4.056-3.288,7.345-7.345,7.345  c-4.056,0-7.345-3.288-7.345-7.345C29.133,13.444,32.422,10.155,36.478,10.155L36.478,10.155z M16.539,55.207l6.789,25.337  c3.01-1.82,6.15-2.452,9.994-1.571l13.694,3.139c3.118,0.715,6.049,0.439,8.82-1.161l34.244-19.77  c3.056-1.764,4.112-5.707,2.348-8.764c-1.764-3.056-5.708-4.113-8.763-2.349L62.933,62.038c0.014,0.782-0.081,1.579-0.296,2.369  c-1.232,4.525-5.945,7.224-10.471,5.992l-12.77-3.476c-0.764-0.207-1.216-0.995-1.008-1.759c0.207-0.764,0.995-1.216,1.759-1.008  l12.77,3.476c2.999,0.816,6.126-0.991,6.952-3.975c1.024-3.761-1.223-7.688-4.984-8.712l-23.907-6.507  c-3.173-0.42-6.054,0.348-8.595,2.295L16.539,55.207L16.539,55.207z M13.183,53.764l8.247,30.778  c0.201,0.751-0.248,1.529-0.999,1.731l-5.688,1.524c-0.751,0.201-1.529-0.248-1.73-0.999L4.765,56.02  c-0.201-0.751,0.248-1.529,0.999-1.731l5.688-1.524C12.203,52.564,12.982,53.013,13.183,53.764L13.183,53.764z M71.145,43.794  c-0.597-6.933-6.459-12.422-13.54-12.422c-7.081,0-12.942,5.489-13.54,12.422c-0.054,0.632,0.438,1.168,1.072,1.168h24.936  C70.708,44.962,71.2,44.426,71.145,43.794L71.145,43.794z M57.605,14.89c4.056,0,7.345,3.288,7.345,7.345  c0,4.056-3.288,7.345-7.345,7.345c-4.056,0-7.345-3.288-7.345-7.345C50.261,18.179,53.549,14.89,57.605,14.89L57.605,14.89z   M92.273,39.06c0.054,0.632-0.438,1.168-1.072,1.168H73.366c-0.98-3.247-2.935-6.063-5.511-8.121  c2.484-3.314,6.442-5.469,10.878-5.469C85.814,26.638,91.675,32.127,92.273,39.06L92.273,39.06z M47.356,32.107  c-2.577,2.058-4.532,4.874-5.511,8.121H24.01c-0.634,0-1.126-0.536-1.072-1.168c0.597-6.933,6.459-12.422,13.54-12.422  C40.915,26.638,44.872,28.792,47.356,32.107L47.356,32.107z M78.733,10.155c4.056,0,7.345,3.288,7.345,7.345  c0,4.056-3.288,7.345-7.345,7.345c-4.056,0-7.345-3.288-7.345-7.345C71.388,13.444,74.676,10.155,78.733,10.155z"/><text x="0" y="113" fill="#000000" font-size="5px" font-weight="bold" font-family="'Helvetica Neue', Helvetica, Arial-Unicode, Arial, Sans-serif">Created by MUHAMMAT SUKIRMAN</text><text x="0" y="118" fill="#000000" font-size="5px" font-weight="bold" font-family="'Helvetica Neue', Helvetica, Arial-Unicode, Arial, Sans-serif">from the Noun Project</text></svg>